<svg width="33" height="25" viewBox="0 0 33 25" fill="none" xmlns="http://www.w3.org/2000/svg">
<g id="Flag icon" clip-path="url(#clip0_1_5092)">
<path id="Vector" d="M32.3232 0.464548L3.0784 0.464549C1.37825 0.464549 0 -1.32061 0 0.464548V24.707C0 26.4921 1.37825 24.707 3.0784 24.707H29.2448C30.945 24.707 32.3232 26.4921 32.3232 24.707V3.69687C32.3232 1.91171 34.0234 0.464548 32.3232 0.464548Z" fill="white"/>
<path id="Vector_2" fill-rule="evenodd" clip-rule="evenodd" d="M0 0.464661H6.15681V6.92931H0V0.464661ZM9.23521 0.464661H15.392V6.92931H9.23521V0.464661ZM0 10.1616H6.15681V16.6263H0V10.1616ZM9.23521 10.1616H15.392V16.6263H9.23521V10.1616ZM15.392 0.464661H32.3232V3.69698H15.392V0.464661ZM15.392 6.92931H32.3232V10.1616H15.392V6.92931Z" fill="#005CB2"/>
<path id="Vector_3" fill-rule="evenodd" clip-rule="evenodd" d="M0 13.394H32.3232V16.6263H0V13.394ZM6.15681 13.394H9.23521V16.6263H6.15681V13.394ZM0 19.8586H32.3232V23.091H0V19.8586Z" fill="#005CB2"/>
</g>
<defs>
<clipPath id="clip0_1_5092">
<rect width="32.3232" height="24.2424" fill="white" transform="translate(0 0.464661)"/>
</clipPath>
</defs>
</svg>
