<svg width="21" height="21" viewBox="0 0 21 21" fill="none" xmlns="http://www.w3.org/2000/svg">
<g id="basic/link_02">
<path id="Icon" d="M7.18599 17.8611C5.48384 17.8611 3.94927 16.8358 3.29778 15.2632C2.64628 13.6907 3.00614 11.8805 4.20956 10.6767L5.99576 8.89054L7.18599 10.0808L5.40064 11.8661C4.76264 12.5041 4.51348 13.434 4.747 14.3055C4.98052 15.1771 5.66126 15.8578 6.53278 16.0913C7.40429 16.3248 8.33419 16.0757 8.97219 15.4377L10.7575 13.6523L11.9478 14.8434L10.1624 16.6288C9.37461 17.4205 8.30288 17.8642 7.18599 17.8611ZM7.78111 14.2474L6.59088 13.0572L12.5429 7.10519L13.7331 8.29543L7.78195 14.2466L7.78111 14.2474ZM14.3291 12.4621L13.138 11.2719L14.9234 9.4865C15.5701 8.85042 15.8259 7.91636 15.5936 7.03952C15.3613 6.16268 14.6766 5.47779 13.7998 5.24529C12.923 5.0128 11.9889 5.26842 11.3527 5.91495L9.56647 7.70031L8.37623 6.51007L10.1624 4.72388C11.8081 3.09253 14.4629 3.09835 16.1014 4.73688C17.74 6.37541 17.7458 9.0302 16.1144 10.6759L14.3291 12.4613V12.4621Z" fill="#79819A"/>
</g>
</svg>
