<svg width="21" height="22" viewBox="0 0 21 22" fill="none" xmlns="http://www.w3.org/2000/svg">
<g id="basic/location">
<path id="Icon" d="M10.1615 18.5354C9.09836 17.6285 8.11288 16.6343 7.21542 15.5631C5.86862 13.9546 4.26929 11.5589 4.26929 9.2761C4.26809 6.89188 5.70384 4.74192 7.90655 3.82947C10.1093 2.91702 12.6448 3.42193 14.3299 5.10859C15.438 6.2118 16.0588 7.71246 16.0538 9.2761C16.0538 11.5589 14.4545 13.9546 13.1077 15.5631C12.2102 16.6343 11.2247 17.6285 10.1615 18.5354ZM10.1615 6.75085C9.25936 6.75085 8.42571 7.23216 7.97461 8.01348C7.52352 8.79479 7.52352 9.75741 7.97461 10.5387C8.42571 11.32 9.25936 11.8014 10.1615 11.8014C11.5562 11.8014 12.6868 10.6708 12.6868 9.2761C12.6868 7.88144 11.5562 6.75085 10.1615 6.75085Z" fill="#79819A"/>
</g>
</svg>
