<svg width="21" height="22" viewBox="0 0 21 22" fill="none" xmlns="http://www.w3.org/2000/svg">
<g id="basic/phone">
<path id="Icon" d="M16.0516 17.6936C8.87014 17.7038 3.41982 12.1881 3.4275 5.06946C3.4275 4.60458 3.80436 4.2256 4.26925 4.2256H6.49093C6.90808 4.2256 7.26245 4.53211 7.3237 4.94473C7.47051 5.93368 7.75844 6.89645 8.17874 7.80363L8.26524 7.99034C8.38551 8.24993 8.30399 8.55838 8.07116 8.72465C7.38313 9.216 7.12019 10.205 7.65619 10.9767C8.32882 11.9452 9.17669 12.7929 10.1449 13.4652C10.9166 14.001 11.9054 13.7381 12.3968 13.0502C12.5632 12.8173 12.8718 12.7357 13.1315 12.856L13.3174 12.9421C14.2246 13.3624 15.1875 13.6503 16.1765 13.7971C16.5891 13.8583 16.8955 14.2127 16.8955 14.6299V16.8518C16.8955 17.3167 16.5177 17.6936 16.0528 17.6936L16.0516 17.6936Z" fill="#79819A"/>
</g>
</svg>
