<svg width="13" height="10" viewBox="0 0 13 10" fill="none" xmlns="http://www.w3.org/2000/svg">
<g id="Icon">
<path d="M2.4608 4.61169C1.14041 4.61169 0.249146 3.69258 0.249146 2.33092C0.249146 1.10543 1.27245 0.0841866 2.65886 0.0841866C4.17731 0.0841866 5.29965 1.30968 5.29965 3.18195C5.29965 7.43713 2.19673 9.1392 0.249146 9.34345V7.47117C1.56954 7.23288 3.05498 5.90527 3.121 4.44148C3.05498 4.47553 2.7909 4.61169 2.4608 4.61169Z" fill="#79819A"/>
<path d="M9.19481 4.61169C7.87442 4.61169 6.98315 3.69258 6.98315 2.33092C6.98315 1.10543 8.00646 0.0841866 9.39287 0.0841866C10.9113 0.0841866 12.0337 1.30968 12.0337 3.18195C12.0337 7.43713 8.93073 9.1392 6.98315 9.34345V7.47117C8.30355 7.23288 9.78899 5.90527 9.85501 4.44148C9.78899 4.47553 9.52491 4.61169 9.19481 4.61169Z" fill="#79819A"/>
</g>
</svg>
